<svg width="931" height="1265" viewBox="0 0 931 1265" fill="none" 
    xmlns="http://www.w3.org/2000/svg">
    <path d="M239.869 1238.08H46.2905C20.725 1238.08 0 1217.36 0 1191.79V1023.4C0 1010.68 5.23389 998.522 14.4724 989.779L29.427 975.627C38.6655 966.884 43.8994 954.725 43.8994 942.005V921.201V899.168H245.512V921.201V943.052C245.512 955.154 250.251 966.775 258.715 975.425L272.956 989.981C281.42 998.631 286.159 1010.25 286.159 1022.35V1191.79C286.159 1217.36 265.434 1238.08 239.869 1238.08Z" fill="#00B4DB" fill-opacity="0.72"/>
    <rect x="26.1847" y="843" width="233.79" height="56.2073" rx="12.6247" fill="#001640" fill-opacity="0.91"/>
    <path d="M247.837 1243.4V1238.08H38.3221V1243.4C38.3221 1255.02 47.7426 1264.44 59.3632 1264.44H226.796C238.417 1264.44 247.837 1255.02 247.837 1243.4Z" fill="#001640" fill-opacity="0.91"/>
    <path d="M41.8306 1035.59C41.8306 1035.59 86.3508 1017.92 144.424 1017.92C202.498 1017.92 244.329 1035.59 244.329 1035.59V1141.37H41.8306V1035.59Z" fill="#001640" fill-opacity="0.91"/>
    <path d="M399.869 816.638H206.29C180.725 816.638 160 795.913 160 770.347V601.959C160 589.239 165.234 577.08 174.472 568.337L189.427 554.185C198.666 545.442 203.899 533.283 203.899 520.563V499.759V477.726H405.512V499.759V521.61C405.512 533.712 410.251 545.333 418.715 553.983L432.956 568.539C441.42 577.189 446.159 588.81 446.159 600.912V770.347C446.159 795.913 425.434 816.638 399.869 816.638Z" fill="#00B4DB" fill-opacity="0.72"/>
    <rect x="186.185" y="421.558" width="233.79" height="56.2073" rx="12.6247" fill="#001640" fill-opacity="0.91"/>
    <path d="M407.837 821.959V816.638H198.322V821.959C198.322 833.58 207.743 843 219.363 843H386.796C398.417 843 407.837 833.58 407.837 821.959Z" fill="#001640" fill-opacity="0.91"/>
    <path d="M201.831 614.147C201.831 614.147 246.351 596.473 304.424 596.473C362.498 596.473 404.329 614.147 404.329 614.147V719.924H201.831V614.147Z" fill="#001640" fill-opacity="0.91"/>
    <path d="M561.869 395.196H368.29C342.725 395.196 322 374.471 322 348.905V180.517C322 167.797 327.234 155.638 336.472 146.895L351.427 132.743C360.666 124 365.899 111.841 365.899 99.121V78.3168V56.2839H567.512V78.3168V100.168C567.512 112.27 572.251 123.891 580.715 132.541L594.956 147.097C603.42 155.747 608.159 167.368 608.159 179.47V348.905C608.159 374.471 587.434 395.196 561.869 395.196Z" fill="#00B4DB" fill-opacity="0.72"/>
    <rect x="348.185" y="0.115723" width="233.79" height="56.2073" rx="12.6247" fill="#001640" fill-opacity="0.91"/>
    <path d="M569.837 400.517V395.196H360.322V400.517C360.322 412.138 369.743 421.558 381.363 421.558H548.796C560.417 421.558 569.837 412.138 569.837 400.517Z" fill="#001640" fill-opacity="0.91"/>
    <path d="M363.831 192.705C363.831 192.705 408.351 175.031 466.424 175.031C524.498 175.031 566.329 192.705 566.329 192.705V298.482H363.831V192.705Z" fill="#001640" fill-opacity="0.91"/>
    <path d="M721.869 816.638H528.29C502.725 816.638 482 795.913 482 770.347V601.959C482 589.239 487.234 577.08 496.472 568.337L511.427 554.185C520.666 545.442 525.899 533.283 525.899 520.563V499.759V477.726H727.512V499.759V521.61C727.512 533.712 732.251 545.333 740.715 553.983L754.956 568.539C763.42 577.189 768.159 588.81 768.159 600.912V770.347C768.159 795.913 747.434 816.638 721.869 816.638Z" fill="#00B4DB" fill-opacity="0.72"/>
    <rect x="508.185" y="421.558" width="233.79" height="56.2073" rx="12.6247" fill="#001640" fill-opacity="0.91"/>
    <path d="M729.837 821.959V816.638H520.322V821.959C520.322 833.58 529.743 843 541.363 843H708.796C720.417 843 729.837 833.58 729.837 821.959Z" fill="#001640" fill-opacity="0.91"/>
    <path d="M523.831 614.147C523.831 614.147 568.351 596.473 626.424 596.473C684.498 596.473 726.329 614.147 726.329 614.147V719.924H523.831V614.147Z" fill="#001640" fill-opacity="0.91"/>
    <path d="M561.869 1238.08H368.29C342.725 1238.08 322 1217.36 322 1191.79V1023.4C322 1010.68 327.234 998.522 336.472 989.779L351.427 975.627C360.666 966.884 365.899 954.725 365.899 942.005V921.201V899.168H567.512V921.201V943.052C567.512 955.154 572.251 966.775 580.715 975.425L594.956 989.981C603.42 998.631 608.159 1010.25 608.159 1022.35V1191.79C608.159 1217.36 587.434 1238.08 561.869 1238.08Z" fill="#00B4DB" fill-opacity="0.72"/>
    <rect x="348.185" y="843" width="233.79" height="56.2073" rx="12.6247" fill="#001640" fill-opacity="0.91"/>
    <path d="M569.837 1243.4V1238.08H360.322V1243.4C360.322 1255.02 369.743 1264.44 381.363 1264.44H548.796C560.417 1264.44 569.837 1255.02 569.837 1243.4Z" fill="#001640" fill-opacity="0.91"/>
    <path d="M363.831 1035.59C363.831 1035.59 408.351 1017.92 466.424 1017.92C524.498 1017.92 566.329 1035.59 566.329 1035.59V1141.37H363.831V1035.59Z" fill="#001640" fill-opacity="0.91"/>
    <path d="M883.869 1238.08H690.291C664.725 1238.08 644 1217.36 644 1191.79V1023.4C644 1010.68 649.234 998.522 658.473 989.779L673.427 975.627C682.666 966.884 687.9 954.725 687.9 942.005V921.201V899.168H889.512V921.201V943.052C889.512 955.154 894.251 966.775 902.715 975.425L916.957 989.981C925.42 998.631 930.16 1010.25 930.16 1022.35V1191.79C930.16 1217.36 909.435 1238.08 883.869 1238.08Z" fill="#00B4DB" fill-opacity="0.72"/>
    <rect x="670.185" y="843" width="233.79" height="56.2073" rx="12.6247" fill="#001640" fill-opacity="0.91"/>
    <path d="M891.837 1243.4V1238.08H682.322V1243.4C682.322 1255.02 691.743 1264.44 703.364 1264.44H870.796C882.417 1264.44 891.837 1255.02 891.837 1243.4Z" fill="#001640" fill-opacity="0.91"/>
    <path d="M685.831 1035.59C685.831 1035.59 730.351 1017.92 788.425 1017.92C846.498 1017.92 888.329 1035.59 888.329 1035.59V1141.37H685.831V1035.59Z" fill="#001640" fill-opacity="0.91"/>
</svg>
